<svg width="48" height="23" viewBox="0 0 48 23" fill="none" xmlns="http://www.w3.org/2000/svg">
    <rect x="0.75" y="0.75" width="46.5" height="21.5" rx="5.25" stroke="url(#paint0_linear_64_2633)" stroke-width="1.5"/>
    <path d="M17.1406 6.49414V7.53711H14.0703C14.1875 8.5332 15.4824 9.48242 17.5273 9.72852L17.0352 10.7598C15.1367 10.5312 13.7363 9.69336 13.168 8.54492C12.5996 9.6875 11.2109 10.5312 9.3125 10.7598L8.83203 9.72852C10.877 9.48242 12.1543 8.5332 12.2773 7.53711H9.23047V6.49414H17.1406ZM18.0195 11.3457V12.4004H13.9297V14.334H12.6406V12.4004H8.33984V11.3457H18.0195ZM16.9531 15.3418V16.3965H9.51172V13.3613H10.8125V15.3418H16.9531ZM27.5352 6.01367V16.6191H26.2227V6.01367H27.5352ZM20.5859 6.88086V9.5293H23.1523V6.88086H24.4414V14.123H19.2852V6.88086H20.5859ZM20.5859 13.0566H23.1523V10.5488H20.5859V13.0566ZM38.75 10.877V11.9316H34.5547V12.8105C36.4531 12.9395 37.5664 13.5957 37.5781 14.6973C37.5664 15.916 36.1953 16.5957 33.9102 16.5957C31.6016 16.5957 30.2188 15.916 30.2188 14.6973C30.2188 13.5957 31.3438 12.9336 33.2656 12.8105V11.9316H29.0938V10.877H38.75ZM33.9102 13.7949C32.3633 13.8066 31.5312 14.1113 31.543 14.6973C31.5312 15.2832 32.3633 15.5996 33.9102 15.5996C35.4219 15.5996 36.2656 15.2832 36.2773 14.6973C36.2656 14.1113 35.4219 13.8066 33.9102 13.7949ZM37.8828 6.48242V7.52539H34.8359C35.041 8.39844 36.3066 9.18359 38.293 9.36523L37.8359 10.3965C35.9141 10.2031 34.4844 9.43555 33.9102 8.35742C33.3359 9.42969 31.9297 10.2031 30.0078 10.3965L29.5625 9.36523C31.5078 9.18359 32.7734 8.38672 32.9961 7.52539H29.9727V6.48242H37.8828Z" fill="url(#paint1_linear_64_2633)"/>
    <defs>
        <linearGradient id="paint0_linear_64_2633" x1="5.5" y1="-2.62546e-06" x2="45.5646" y2="21.3789" gradientUnits="userSpaceOnUse">
            <stop stop-color="#4776EF"/>
            <stop offset="1" stop-color="#AD50FF"/>
        </linearGradient>
        <linearGradient id="paint1_linear_64_2633" x1="11.6667" y1="4.56445" x2="36.0085" y2="20.1455" gradientUnits="userSpaceOnUse">
            <stop stop-color="#4776EF"/>
            <stop offset="1" stop-color="#AD50FF"/>
        </linearGradient>
    </defs>
</svg>
