<svg width="30" height="30" viewBox="0 0 30 30" fill="none" xmlns="http://www.w3.org/2000/svg">
<circle cx="15" cy="15" r="15" fill="#537EEF"/>
<path fill-rule="evenodd" clip-rule="evenodd" d="M23.7508 9.68514C24.0086 9.94299 24.1534 10.2927 24.1534 10.6573C24.1534 11.0219 24.0086 11.3715 23.7508 11.6294L13.4448 21.9355C13.3086 22.0717 13.1469 22.1798 12.9689 22.2535C12.7909 22.3272 12.6002 22.3652 12.4076 22.3652C12.2149 22.3652 12.0242 22.3272 11.8462 22.2535C11.6682 22.1798 11.5065 22.0717 11.3703 21.9355L6.24985 16.8159C6.11852 16.6891 6.01377 16.5373 5.94171 16.3696C5.86965 16.2018 5.83172 16.0214 5.83013 15.8388C5.82854 15.6562 5.86333 15.4752 5.93247 15.3062C6.00161 15.1372 6.1037 14.9837 6.23281 14.8546C6.36191 14.7255 6.51543 14.6234 6.68441 14.5543C6.85339 14.4851 7.03445 14.4503 7.21703 14.4519C7.3996 14.4535 7.58003 14.4914 7.74778 14.5635C7.91554 14.6356 8.06726 14.7403 8.1941 14.8716L12.4071 19.0846L21.8057 9.68514C21.9334 9.55737 22.085 9.45601 22.2519 9.38685C22.4188 9.3177 22.5976 9.2821 22.7783 9.2821C22.9589 9.2821 23.1378 9.3177 23.3047 9.38685C23.4715 9.45601 23.6232 9.55737 23.7508 9.68514Z" fill="white"/>
</svg>
