<svg width="25" height="24" viewBox="0 0 25 24" fill="none" xmlns="http://www.w3.org/2000/svg">
<path d="M18.3617 4.13714C18.481 4.72355 18.7686 5.26247 19.1894 5.68791C19.6149 6.10851 20.1538 6.39593 20.7402 6.51498C20.9849 6.56179 21.2063 6.69088 21.3676 6.88083C21.5289 7.07078 21.6204 7.31018 21.627 7.55929C21.6196 7.80767 21.5279 8.04614 21.3667 8.23532C21.2056 8.42451 20.9848 8.55311 20.7408 8.59991C20.1532 8.71605 19.6133 9.00422 19.1899 9.42782C18.7664 9.85142 18.4783 10.3913 18.3623 10.979C18.3223 11.2266 18.1954 11.4519 18.0044 11.6145C17.8134 11.7771 17.5707 11.8664 17.3199 11.8664C17.069 11.8664 16.8264 11.7771 16.6354 11.6145C16.4443 11.4519 16.3175 11.2266 16.2774 10.979C16.1615 10.3914 15.8735 9.85157 15.4501 9.42797C15.0268 9.00438 14.4871 8.71616 13.8996 8.59991C13.6554 8.5532 13.4344 8.42453 13.2733 8.2352C13.1122 8.04586 13.0205 7.8072 13.0134 7.55867C13.02 7.30976 13.1115 7.07057 13.2727 6.88076C13.4338 6.69094 13.655 6.56189 13.8996 6.51498C14.4861 6.39558 15.025 6.10773 15.4503 5.68667C15.8709 5.26116 16.1584 4.72225 16.2774 4.13591C16.3174 3.88842 16.4443 3.66327 16.6352 3.50077C16.8261 3.33827 17.0686 3.24902 17.3193 3.24902C17.57 3.24902 17.8125 3.33827 18.0034 3.50077C18.1943 3.66327 18.3211 3.88842 18.3611 4.13591M20.2282 12.2448C20.2776 12.4969 20.401 12.7285 20.5826 12.9101C20.7642 13.0918 20.9958 13.2151 21.2479 13.2645C21.3536 13.2821 21.4497 13.3367 21.519 13.4185C21.5884 13.5003 21.6264 13.6041 21.6264 13.7113C21.6264 13.8185 21.5884 13.9223 21.519 14.0041C21.4497 14.0859 21.3536 14.1404 21.2479 14.1581C20.9958 14.2074 20.7642 14.3308 20.5826 14.5125C20.401 14.6941 20.2776 14.9257 20.2282 15.1778C20.2106 15.2835 20.156 15.3796 20.0742 15.4489C19.9924 15.5182 19.8886 15.5563 19.7814 15.5563C19.6742 15.5563 19.5704 15.5182 19.4886 15.4489C19.4068 15.3796 19.3523 15.2835 19.3346 15.1778C19.2853 14.9257 19.1619 14.6941 18.9803 14.5125C18.7986 14.3308 18.567 14.2074 18.315 14.1581C18.2092 14.1404 18.1131 14.0859 18.0438 14.0041C17.9745 13.9223 17.9364 13.8185 17.9364 13.7113C17.9364 13.6041 17.9745 13.5003 18.0438 13.4185C18.1131 13.3367 18.2092 13.2821 18.315 13.2645C18.567 13.2151 18.7986 13.0918 18.9803 12.9101C19.1619 12.7285 19.2853 12.4969 19.3346 12.2448C19.3519 12.1388 19.4062 12.0424 19.488 11.9728C19.5698 11.9032 19.6737 11.865 19.7811 11.865C19.8885 11.865 19.9924 11.9032 20.0742 11.9728C20.156 12.0424 20.211 12.1388 20.2282 12.2448ZM11.6122 3.62944C11.6616 3.88158 11.7851 4.11327 11.9668 4.2949C12.1486 4.47652 12.3803 4.59986 12.6325 4.64914C12.7383 4.66675 12.8343 4.72132 12.9037 4.80313C12.973 4.88494 13.011 4.98868 13.011 5.09591C13.011 5.20313 12.973 5.30687 12.9037 5.38868C12.8343 5.47049 12.7383 5.52506 12.6325 5.54267C12.3804 5.59206 12.1488 5.71544 11.9672 5.89707C11.7856 6.07869 11.6622 6.31031 11.6128 6.56237C11.5952 6.66813 11.5406 6.76422 11.4588 6.83353C11.377 6.90284 11.2733 6.94088 11.166 6.94088C11.0588 6.94088 10.9551 6.90284 10.8733 6.83353C10.7914 6.76422 10.7369 6.66813 10.7193 6.56237C10.6699 6.31031 10.5465 6.07869 10.3649 5.89707C10.1832 5.71544 9.95163 5.59206 9.69957 5.54267C9.5938 5.52506 9.49772 5.47049 9.4284 5.38868C9.35909 5.30687 9.32105 5.20313 9.32105 5.09591C9.32105 4.98868 9.35909 4.88494 9.4284 4.80313C9.49772 4.72132 9.5938 4.66675 9.69957 4.64914C9.95163 4.59975 10.1832 4.47637 10.3649 4.29474C10.5465 4.11312 10.6699 3.8815 10.7193 3.62944C10.7365 3.52344 10.7908 3.42701 10.8726 3.35742C10.9544 3.28784 11.0583 3.24962 11.1657 3.24962C11.2731 3.24962 11.377 3.28784 11.4588 3.35742C11.5406 3.42701 11.595 3.52344 11.6122 3.62944ZM5.62695 10.019V17.4036C5.62695 17.8932 5.82146 18.3628 6.16768 18.709C6.5139 19.0552 6.98348 19.2498 7.47311 19.2498H14.8577C15.3474 19.2498 15.8169 19.0552 16.1632 18.709C16.5094 18.3628 16.7039 17.8932 16.7039 17.4036V14.9421C16.7039 14.7788 16.639 14.6223 16.5236 14.5069C16.4082 14.3915 16.2517 14.3267 16.0885 14.3267C15.9253 14.3267 15.7688 14.3915 15.6533 14.5069C15.5379 14.6223 15.4731 14.7788 15.4731 14.9421V17.4036C15.4731 17.5668 15.4083 17.7233 15.2929 17.8387C15.1775 17.9541 15.0209 18.019 14.8577 18.019H7.47311C7.3099 18.019 7.15337 17.9541 7.03796 17.8387C6.92256 17.7233 6.85772 17.5668 6.85772 17.4036V10.019C6.85772 9.85577 6.92256 9.69925 7.03796 9.58384C7.15337 9.46843 7.3099 9.4036 7.47311 9.4036H9.93465C10.0979 9.4036 10.2544 9.33876 10.3698 9.22336C10.4852 9.10795 10.55 8.95142 10.55 8.78821C10.55 8.625 10.4852 8.46848 10.3698 8.35307C10.2544 8.23766 10.0979 8.17283 9.93465 8.17283H7.47311C6.98348 8.17283 6.5139 8.36733 6.16768 8.71355C5.82146 9.05977 5.62695 9.52935 5.62695 10.019ZM14.2423 11.2498C14.2423 11.0865 14.1775 10.93 14.0621 10.8146C13.9467 10.6992 13.7902 10.6344 13.627 10.6344H8.70388C8.54067 10.6344 8.38414 10.6992 8.26873 10.8146C8.15333 10.93 8.08849 11.0865 8.08849 11.2498C8.08849 11.413 8.15333 11.5695 8.26873 11.6849C8.38414 11.8003 8.54067 11.8651 8.70388 11.8651H13.627C13.7902 11.8651 13.9467 11.8003 14.0621 11.6849C14.1775 11.5695 14.2423 11.413 14.2423 11.2498ZM14.2423 13.7113C14.2423 13.5481 14.1775 13.3916 14.0621 13.2761C13.9467 13.1607 13.7902 13.0959 13.627 13.0959H8.70388C8.54067 13.0959 8.38414 13.1607 8.26873 13.2761C8.15333 13.3916 8.08849 13.5481 8.08849 13.7113C8.08849 13.8745 8.15333 14.031 8.26873 14.1464C8.38414 14.2618 8.54067 14.3267 8.70388 14.3267H13.627C13.7902 14.3267 13.9467 14.2618 14.0621 14.1464C14.1775 14.031 14.2423 13.8745 14.2423 13.7113ZM14.2423 16.1728C14.2423 16.0096 14.1775 15.8531 14.0621 15.7377C13.9467 15.6223 13.7902 15.5574 13.627 15.5574H8.70388C8.54067 15.5574 8.38414 15.6223 8.26873 15.7377C8.15333 15.8531 8.08849 16.0096 8.08849 16.1728C8.08849 16.336 8.15333 16.4926 8.26873 16.608C8.38414 16.7234 8.54067 16.7882 8.70388 16.7882H13.627C13.7902 16.7882 13.9467 16.7234 14.0621 16.608C14.1775 16.4926 14.2423 16.336 14.2423 16.1728Z" fill="#4776EF"/>
</svg>
