<svg width="80" height="80" viewBox="0 0 80 80" fill="none" xmlns="http://www.w3.org/2000/svg">
<circle cx="40" cy="40" r="40" fill="#4776EF" fill-opacity="0.08"/>
<path d="M54.0632 49.7428L51.6189 45.7151L53.6966 37.9611C54.5118 35.0935 54.2092 32.0143 52.8445 29.2923C51.4799 26.5703 49.1453 24.3891 46.272 23.1516C44.5949 22.4691 42.7939 22.1336 40.9892 22.1676C39.1845 22.2016 37.4177 22.6043 35.8065 23.3489C34.1954 24.0934 32.777 25.1626 31.646 26.4852C30.5149 27.8078 29.6973 29.3534 29.2477 31.0187L27.0722 39.1378L22.9415 41.4037C22.4215 41.6927 22.0057 42.1243 21.7461 42.6446C21.4866 43.1648 21.3947 43.7507 21.4821 44.3288C21.5695 44.907 21.8322 45.4519 22.2374 45.8953C22.6426 46.3387 23.1724 46.6611 23.7604 46.822L29.8971 48.4663L29.7387 49.0574C29.3511 50.8453 29.7229 52.725 30.7727 54.2846C31.8225 55.8443 33.4646 56.9567 35.3393 57.3781C37.1735 57.9505 39.1518 57.8082 40.8408 56.9824C42.5297 56.1566 43.7916 54.7146 44.3498 52.9725L44.5082 52.3814L50.6449 54.0257C51.2346 54.1803 51.8545 54.166 52.4272 53.9846C52.9998 53.8032 53.4998 53.4627 53.8645 53.0057C54.2293 52.5487 54.4427 51.9954 54.478 51.4151C54.5134 50.8347 54.3691 50.2531 54.0632 49.7428ZM40.697 51.9937C40.3717 52.8028 39.7299 53.4527 38.9054 53.808C38.0809 54.1633 37.1372 54.1966 36.271 53.901C35.373 53.7239 34.5724 53.2232 34.036 52.5032C33.4995 51.7833 33.2687 50.8996 33.3915 50.0362L33.5499 49.4451L40.8554 51.4026L40.697 51.9937ZM26.281 43.7706L28.9859 42.2966C29.4144 42.0647 29.7887 41.7527 30.0872 41.3786C30.3856 41.0044 30.6024 40.5755 30.725 40.1166L32.9005 31.9975C33.2157 30.8249 33.7908 29.7368 34.5872 28.806C35.3835 27.8752 36.3827 27.1234 37.5176 26.601C38.6451 26.0565 39.8886 25.7563 41.1621 25.7211C42.4356 25.6859 43.7088 25.9166 44.8934 26.3972C46.9181 27.2896 48.5562 28.8451 49.506 30.7774C50.4558 32.7096 50.6534 34.8885 50.0624 36.9128L47.9661 44.7363C47.8407 45.1932 47.8113 45.6715 47.8796 46.1439C47.9478 46.6162 48.1124 47.0733 48.3639 47.4889L49.9876 50.1228L26.281 43.7706Z" fill="#4776EF"/>
</svg>
