<svg width="48" height="47" viewBox="0 0 48 47" fill="none" xmlns="http://www.w3.org/2000/svg">
<path d="M47.0431 11.7814C46.8733 12.0003 46.7127 12.3025 46.4676 12.4999C46.1313 12.7708 45.7568 13.0408 45.3534 13.1738C43.6871 13.7223 43.6626 15.029 43.8132 16.4112C43.8391 16.648 44.0066 16.9029 44.1793 17.0808C44.367 17.2741 44.6356 17.3897 44.8715 17.5351C47.3673 19.0748 47.3674 19.0746 46.1578 21.7665C46.1255 21.8388 46.0857 21.9076 46.0503 21.9786C44.9014 24.294 45.2081 23.8243 43.1516 23.3728C42.0805 23.1376 41.1571 22.7666 40.2096 23.9169C39.5531 24.7139 39.4363 25.3152 39.679 26.2249C40.366 28.7996 40.3391 28.8068 37.9339 29.8307C35.4649 30.8816 35.4649 30.8816 34.08 28.6172C32.9478 26.7662 30.9122 26.7804 29.8036 28.6473C28.4942 30.8518 28.4943 30.852 26.1509 29.9026C23.5443 28.8466 23.5443 28.8466 24.2047 26.1774C24.6878 24.2252 23.2145 22.7623 21.2556 23.2493C18.5868 23.9126 18.5868 23.9126 17.5737 21.378C17.5591 21.3413 17.5419 21.3056 17.5274 21.2688C16.6361 18.9819 16.6362 18.9819 18.7587 17.7091C19.9925 16.9694 20.5681 15.6194 20.0666 14.3722C19.928 14.0277 19.4692 13.7797 19.1123 13.5608C16.4974 11.9577 16.4939 11.9637 17.77 9.17683C18.6966 7.15308 18.7449 7.01341 20.8144 7.72763C22.3789 8.26751 23.2831 7.64407 24.1305 6.56535C24.3027 6.34598 24.3674 6.00945 24.3942 5.71884C24.4146 5.49542 24.2777 5.26216 24.2452 5.02837C24.1182 4.11853 23.6124 2.63379 23.9567 2.39789C25.2299 1.52552 26.7792 1.04878 28.2458 0.477229C28.3831 0.423751 28.7205 0.710668 28.8739 0.909805C29.1625 1.28433 29.4732 1.68067 29.6189 2.11976C30.1692 3.77778 31.4563 3.84357 32.8503 3.67715C33.0869 3.649 33.3327 3.46693 33.5165 3.29453C33.6834 3.13796 33.7724 2.89802 33.8947 2.6943C35.4538 0.0983046 35.4538 0.0983061 38.2689 1.34028C40.2938 2.23358 40.3287 2.24255 39.7789 4.37131C39.491 5.48627 39.3066 6.4035 40.4168 7.29716C41.1249 7.86713 41.6334 8.05466 42.5046 7.82051C45.3039 7.06865 45.32 7.10488 46.3923 9.84073C46.6219 10.4278 46.7954 11.0375 47.0431 11.7814ZM35.837 15.4989C35.8291 13.336 34.0483 11.5696 31.9 11.5939C29.7601 11.6182 28.033 13.4206 28.0671 15.5934C28.1007 17.7251 29.8038 19.4074 31.9346 19.4136C34.1109 19.4201 35.8449 17.6803 35.837 15.4989Z" fill="url(#paint0_linear_10349_4468)"/>
<path d="M2.12832 28.2006C2.98597 27.4912 3.81434 26.7615 4.69921 26.1085C4.89701 25.9626 5.31442 26.0188 5.59247 26.1052C5.85466 26.1866 6.1122 26.3923 6.29246 26.6093C7.14069 27.6307 8.07511 27.298 8.98192 26.7682C9.19482 26.6439 9.33184 26.2695 9.37313 25.9908C9.71918 23.6531 9.71003 23.6517 12.1061 23.6997C12.2514 23.7027 12.3974 23.7201 12.5415 23.71C13.3493 23.6536 13.7991 23.9949 13.8227 24.8338C13.8283 25.0364 13.8578 25.239 13.885 25.4403C14.0451 26.6237 14.5349 27.1422 15.7105 27.3374C15.8626 27.3627 16.0481 27.3014 16.1928 27.2291C16.3721 27.1396 16.5253 26.9971 16.6893 26.8771C18.3803 25.6399 18.3806 25.6396 19.8787 27.1789C20.0408 27.3455 20.1892 27.526 20.3577 27.6855C20.9049 28.2037 21.0446 28.7266 20.4391 29.3102C20.2534 29.4892 20.1239 29.7261 19.9684 29.9364C19.3913 30.7178 19.3772 31.7969 20.046 32.495C20.2649 32.7237 20.7253 32.7511 21.0851 32.8097C23.116 33.1404 23.1171 33.1342 23.087 35.1894C23.0602 37.027 23.0602 37.027 21.1841 37.2876C19.6079 37.5067 19.0211 38.89 19.9573 40.1799C21.0956 41.7484 21.0956 41.7484 19.706 43.1299C18.3394 44.4885 18.3394 44.4885 16.7563 43.3102C15.5799 42.4347 14.1778 42.996 13.921 44.4454C13.5565 46.5019 13.5565 46.5019 11.4958 46.4612C9.78706 46.4274 9.64486 46.4364 9.53854 44.755C9.45583 43.4468 8.628 43.161 7.71099 42.8273C7.55577 42.7708 7.32584 42.8489 7.15565 42.923C6.97333 43.0023 6.81863 43.1475 6.65554 43.2689C4.94475 44.543 4.94501 44.5433 3.45267 42.9315C2.29477 41.6808 2.29477 41.6808 3.29745 40.3277C4.0333 39.3347 4.05717 38.7055 3.36778 37.7069C3.2812 37.5814 3.1123 37.4848 2.96198 37.4378C2.71438 37.3605 2.44522 37.3541 2.19477 37.2833C1.61182 37.1184 0.575726 37.0044 0.534954 36.7433C0.359733 35.6212 0.465154 34.4528 0.511218 33.303C0.515346 33.1997 0.817018 33.0666 0.998948 33.0212C1.33532 32.9369 1.68629 32.9126 2.02963 32.8541C3.25385 32.646 3.71034 32.2396 3.93201 31.0636C3.97162 30.8533 3.83434 30.571 3.7017 30.3738C3.29785 29.7729 2.85591 29.1975 2.12832 28.2006ZM11.8083 32.2095C10.2334 32.1448 8.8654 33.4065 8.81882 34.9664C8.77147 36.5546 10.0003 37.8635 11.6029 37.9318C13.1507 37.9977 14.4941 36.7219 14.555 35.1281C14.6121 33.6321 13.3321 32.2721 11.8083 32.2095Z" fill="url(#paint1_linear_10349_4468)"/>
<defs>
<linearGradient id="paint0_linear_10349_4468" x1="31.9903" y1="0.470703" x2="32.4375" y2="30.4707" gradientUnits="userSpaceOnUse">
<stop stop-color="#CFD1D4"/>
<stop offset="1" stop-color="#A8ABB7"/>
</linearGradient>
<linearGradient id="paint1_linear_10349_4468" x1="11.7653" y1="23.6885" x2="12.1072" y2="46.4409" gradientUnits="userSpaceOnUse">
<stop stop-color="#CFD1D4"/>
<stop offset="1" stop-color="#A8ABB7"/>
</linearGradient>
</defs>
</svg>
