<svg width="218" height="47" viewBox="0 0 218 47" fill="none" xmlns="http://www.w3.org/2000/svg"><mask id="a" fill="#fff"><path fill-rule="evenodd" clip-rule="evenodd" d="M95.423.482a1.07 1.07 0 0 1 1.76 0L101.008 6H197.5c11.322 0 20.5 9.178 20.5 20.5S208.822 47 197.5 47h-177C9.178 47 0 37.822 0 26.5S9.178 6 20.5 6h71.1z"/></mask><path fill-rule="evenodd" clip-rule="evenodd" d="M95.423.482a1.07 1.07 0 0 1 1.76 0L101.008 6H197.5c11.322 0 20.5 9.178 20.5 20.5S208.822 47 197.5 47h-177C9.178 47 0 37.822 0 26.5S9.178 6 20.5 6h71.1z" fill="#fff"/><path d="m97.184.482.822-.57zm-1.761 0-.823-.57zM101.007 6v1h-.524l-.298-.43zM197.5 6v1zm0 41v1zm-177 0v-1zM91.6 6l.821.57-.298.43h-.524zm4.762-4.949a.1.1 0 0 0-.025-.023.1.1 0 0 0-.034-.008.1.1 0 0 0-.034.008.1.1 0 0 0-.025.023L94.6-.088a2.07 2.07 0 0 1 3.406 0zm3.823 5.518-3.823-5.518 1.644-1.139 3.823 5.518zM197.5 7h-96.493V5H197.5zM217 26.5C217 15.73 208.27 7 197.5 7V5c11.874 0 21.5 9.626 21.5 21.5zM197.5 46c10.77 0 19.5-8.73 19.5-19.5h2c0 11.874-9.626 21.5-21.5 21.5zm-177 0h177v2h-177zM1 26.5C1 37.27 9.73 46 20.5 46v2C8.626 48-1 38.374-1 26.5zM20.5 7C9.73 7 1 15.73 1 26.5h-2C-1 14.626 8.626 5 20.5 5zm71.1 0H20.5V5h71.1zm4.645-5.949L92.42 6.57l-1.643-1.14L94.6-.088z" fill="#4776EF" mask="url(#a)"/></svg>