<svg width="55" height="52" viewBox="0 0 55 52" fill="none" xmlns="http://www.w3.org/2000/svg">
<path d="M41.2091 16.2443C41.2089 15.5485 40.6449 14.9845 39.9491 14.9843L11.1121 14.9843C10.4163 14.9845 9.85227 15.5485 9.8521 16.2443L12.0785 16.2443L12.0785 17.5642L9.8521 17.5642V33.5227L12.0785 33.5227L12.0785 34.8426L9.8521 34.8426C9.85227 35.5384 10.4163 36.1024 11.1121 36.1026L39.9491 36.1026C40.6449 36.1024 41.2089 35.5384 41.2091 34.8426L38.7426 34.8424L38.7426 33.5226L41.2089 33.5226V17.564L38.7426 17.564V16.2441L41.2089 16.2441L41.2091 16.2443ZM26.7974 16.2443L26.7974 17.5642H24.0242L24.0242 16.2443L26.7976 16.2441L26.7974 16.2443ZM23.1177 16.2443L23.1177 17.5642H20.3445L20.3445 16.2443L23.1177 16.2443ZM19.438 16.2443L19.438 17.5642L16.6646 17.564L16.6646 16.2441H19.4378L19.438 16.2443ZM12.985 16.2443L15.7582 16.2443L15.7582 17.5642L12.9849 17.5643L12.9849 16.2445L12.985 16.2443ZM12.985 34.8426L12.985 33.5227L15.7582 33.5227L15.7582 34.8426L12.985 34.8426ZM16.6648 34.8426L16.6648 33.5227L19.4381 33.5226L19.4381 34.8424L16.6649 34.8424L16.6648 34.8426ZM20.3445 34.8426L20.3445 33.5227H23.1177L23.1177 34.8426L20.3445 34.8426ZM24.0239 34.8426L24.0239 33.5227H26.7971L26.7971 34.8426L24.0237 34.8428L24.0239 34.8426ZM27.7036 34.8426L27.7036 33.5227L30.4768 33.5227L30.4768 34.8426L27.7036 34.8426ZM31.3833 34.8426L31.3833 33.5227H34.1565L34.1565 34.8426H31.3833ZM37.8362 34.8426H35.063L35.063 33.5227L37.8362 33.5227L37.8362 34.8426ZM27.7036 17.5642L27.7036 16.2443L30.4768 16.2443L30.4768 17.5642L27.7036 17.5642ZM31.3833 17.5642L31.3833 16.2443H34.1565L34.1565 17.5642H31.3833ZM37.8361 17.5643H35.0629L35.0629 16.2445L37.8361 16.2445L37.8361 17.5643Z" fill="#C3D8FC"/>
<path d="M19.5234 46.3223V22.57C19.5234 21.4197 20.4572 20.4873 21.6092 20.4873H29.4026C29.9493 20.4873 30.4812 20.6652 30.9175 20.994L33.2988 22.7889C33.7352 23.1177 34.267 23.2956 34.8137 23.2956H52.151C53.3029 23.2956 54.2367 24.228 54.2367 25.3782V46.3221C54.2367 47.5488 53.241 48.543 52.0125 48.543H21.7477C20.5192 48.543 19.5234 47.5488 19.5234 46.3221V46.3223Z" fill="url(#paint0_linear_10349_4476)"/>
<path d="M51.9825 48.5415L21.7615 48.5415C20.523 48.5415 19.5175 47.5375 19.5175 46.3008V27.5197C19.5175 26.3705 20.4519 25.4373 21.603 25.4373L52.141 25.4373C53.2919 25.4373 54.2266 26.3703 54.2266 27.5197V46.3006C54.2266 47.5372 53.221 48.5413 51.9825 48.5413V48.5415Z" fill="url(#paint1_linear_10349_4476)"/>
<path d="M52.147 25.4365H21.609C20.4572 25.4365 19.5234 26.3689 19.5234 27.519V27.711C19.5234 26.561 20.4572 25.6285 21.609 25.6285H52.147C53.2988 25.6285 54.2325 26.561 54.2325 27.711V27.519C54.2325 26.3689 53.2988 25.4365 52.147 25.4365Z" fill="#406AD5"/>
<path d="M34.101 36.4385V39.6714C34.101 40.0909 34.4414 40.4308 34.8615 40.4308H38.8797C39.2998 40.4308 39.6402 40.0909 39.6402 39.6714V36.4385H41.0764C41.2994 36.4385 41.411 36.1692 41.2533 36.012L37.0476 31.8125C36.9498 31.7148 36.7914 31.7148 36.6936 31.8125L32.4879 36.012C32.3302 36.1694 32.4418 36.4385 32.6648 36.4385H34.101Z" fill="white"/>
<path d="M34.6024 42.2448H39.1321C39.4107 42.2448 39.6368 42.0193 39.6368 41.7408C39.6368 41.4626 39.4109 41.2368 39.1321 41.2368H34.6024C34.3238 41.2368 34.0977 41.4624 34.0977 41.7408C34.0977 42.0191 34.3235 42.2448 34.6024 42.2448Z" fill="white"/>
<defs>
<linearGradient id="paint0_linear_10349_4476" x1="36.8801" y1="23.966" x2="36.8801" y2="29.4779" gradientUnits="userSpaceOnUse">
<stop stop-color="#4776EF"/>
<stop offset="0.62689" stop-color="#1B42A6"/>
</linearGradient>
<linearGradient id="paint1_linear_10349_4476" x1="36.872" y1="41.5" x2="36.872" y2="53.3164" gradientUnits="userSpaceOnUse">
<stop stop-color="#4776EF"/>
<stop offset="1" stop-color="#284CA7"/>
</linearGradient>
</defs>
</svg>
